<svg xmlns="http://www.w3.org/2000/svg" xmlns:xlink="http://www.w3.org/1999/xlink" width="1080" zoomAndPan="magnify" viewBox="0 0 810 809.999993" height="1080" preserveAspectRatio="xMidYMid meet" version="1.0"><path fill="#ffadad" d="M 298.351562 365.679688 L 232.03125 365.679688 L 232.03125 302.941406 L 292.207031 302.941406 C 355.589844 302.941406 347.761719 365.679688 298.351562 365.679688 Z M 493.730469 401.390625 L 582.289062 401.390625 C 578.40625 344.453125 502.640625 340.300781 493.730469 401.390625 Z M 294.605469 414.753906 L 232.03125 414.753906 L 232.03125 480.464844 L 293.589844 480.464844 C 353.734375 480.429688 350.054688 414.753906 294.605469 414.753906 Z M 810 405 C 810 628.660156 628.660156 810 405 810 C 181.339844 810 0 628.660156 0 405 C 0 181.339844 181.339844 0 405 0 C 628.660156 0 810 181.339844 810 405 Z M 359.203125 380.261719 C 415.496094 351.472656 413.4375 245.902344 305.640625 244.316406 L 168.75 244.316406 L 168.75 538.953125 L 296.019531 538.953125 C 429.605469 538.953125 427.34375 405.066406 359.203125 380.261719 Z M 472.5 273.410156 L 607.5 273.410156 L 607.5 243.878906 L 472.5 243.878906 Z M 639.328125 398.046875 C 620.933594 279.753906 435.039062 272.800781 435.039062 427.476562 C 435.039062 580.230469 609.863281 556.335938 635.816406 480.128906 L 573.445312 480.128906 C 551.675781 505.371094 488.800781 498.046875 492.3125 440.167969 L 641.148438 440.167969 C 641.453125 421.4375 640.84375 408.003906 639.328125 398.046875 Z M 639.328125 398.046875 " fill-opacity="1" fill-rule="nonzero"/></svg>