<svg xmlns="http://www.w3.org/2000/svg" xmlns:xlink="http://www.w3.org/1999/xlink" width="1080" zoomAndPan="magnify" viewBox="0 0 810 809.999993" height="1080" preserveAspectRatio="xMidYMid meet" version="1.0"><path fill="#ffadad" d="M 405 0 C 181.371094 0 0 181.339844 0 405 C 0 583.941406 116.03125 735.75 276.984375 789.3125 C 297.203125 793.058594 303.75 780.503906 303.75 769.835938 L 303.75 694.441406 C 191.09375 718.941406 167.636719 646.648438 167.636719 646.648438 C 149.207031 599.839844 122.648438 587.386719 122.648438 587.386719 C 85.894531 562.242188 125.449219 562.78125 125.449219 562.78125 C 166.117188 565.617188 187.515625 604.53125 187.515625 604.53125 C 223.628906 666.425781 282.25 648.539062 305.371094 638.179688 C 308.980469 612.023438 319.476562 594.136719 331.085938 584.042969 C 241.144531 573.75 146.578125 539.019531 146.578125 383.871094 C 146.578125 339.625 162.40625 303.515625 188.292969 275.164062 C 184.105469 264.9375 170.234375 223.730469 192.238281 167.972656 C 192.238281 167.972656 226.261719 157.105469 303.648438 209.488281 C 335.949219 200.507812 370.574219 196.019531 405 195.851562 C 439.425781 196.019531 474.085938 200.507812 506.453125 209.488281 C 583.773438 157.105469 617.726562 167.972656 617.726562 167.972656 C 639.765625 223.761719 625.894531 264.972656 621.707031 275.164062 C 647.695312 303.515625 663.390625 339.660156 663.390625 383.871094 C 663.390625 539.425781 568.652344 573.683594 478.472656 583.707031 C 492.984375 596.261719 506.25 620.898438 506.25 658.699219 L 506.25 769.835938 C 506.25 780.605469 512.730469 793.261719 533.285156 789.277344 C 694.101562 735.648438 810 583.875 810 405 C 810 181.339844 628.660156 0 405 0 Z M 405 0 " fill-opacity="1" fill-rule="nonzero"/></svg>