<svg xmlns="http://www.w3.org/2000/svg" xmlns:xlink="http://www.w3.org/1999/xlink" width="1080" zoomAndPan="magnify" viewBox="0 0 810 809.999993" height="1080" preserveAspectRatio="xMidYMid meet" version="1.0"><path fill="#ffadad" d="M 500.480469 212.691406 C 475.570312 211.546875 468.078125 211.34375 405 211.34375 C 341.921875 211.34375 334.460938 211.578125 309.554688 212.691406 C 245.464844 215.628906 215.628906 245.96875 212.691406 309.554688 C 211.578125 334.460938 211.308594 341.921875 211.308594 405 C 211.308594 468.078125 211.578125 475.539062 212.691406 500.480469 C 215.628906 563.894531 245.328125 594.40625 309.554688 597.339844 C 334.429688 598.457031 341.921875 598.726562 405 598.726562 C 468.113281 598.726562 475.570312 598.488281 500.480469 597.339844 C 564.570312 594.4375 594.371094 563.996094 597.339844 500.480469 C 598.453125 475.570312 598.691406 468.078125 598.691406 405 C 598.691406 341.921875 598.453125 334.460938 597.339844 309.554688 C 594.371094 246.003906 564.503906 215.628906 500.480469 212.691406 Z M 405 526.332031 C 338.007812 526.332031 283.667969 472.027344 283.667969 405 C 283.667969 338.007812 338.007812 283.703125 405 283.703125 C 471.992188 283.703125 526.332031 338.007812 526.332031 405 C 526.332031 471.992188 471.992188 526.332031 405 526.332031 Z M 531.125 307.261719 C 515.464844 307.261719 502.773438 294.570312 502.773438 278.910156 C 502.773438 263.25 515.464844 250.558594 531.125 250.558594 C 546.785156 250.558594 559.472656 263.25 559.472656 278.910156 C 559.472656 294.535156 546.785156 307.261719 531.125 307.261719 Z M 483.738281 405 C 483.738281 448.503906 448.46875 483.738281 405 483.738281 C 361.53125 483.738281 326.261719 448.503906 326.261719 405 C 326.261719 361.496094 361.53125 326.261719 405 326.261719 C 448.46875 326.261719 483.738281 361.496094 483.738281 405 Z M 405 0 C 181.339844 0 0 181.339844 0 405 C 0 628.660156 181.339844 810 405 810 C 628.660156 810 810 628.660156 810 405 C 810 181.339844 628.660156 0 405 0 Z M 639.832031 502.402344 C 635.953125 588.296875 588.128906 635.882812 502.4375 639.832031 C 477.226562 640.980469 469.160156 641.25 405 641.25 C 340.839844 641.25 332.808594 640.980469 307.597656 639.832031 C 221.738281 635.882812 174.117188 588.230469 170.167969 502.402344 C 169.019531 477.226562 168.75 469.160156 168.75 405 C 168.75 340.839844 169.019531 332.808594 170.167969 307.597656 C 174.117188 221.738281 221.769531 174.117188 307.597656 170.203125 C 332.808594 169.019531 340.839844 168.75 405 168.75 C 469.160156 168.75 477.226562 169.019531 502.4375 170.203125 C 588.328125 174.148438 635.984375 221.90625 639.832031 307.597656 C 640.980469 332.808594 641.25 340.839844 641.25 405 C 641.25 469.160156 640.980469 477.226562 639.832031 502.402344 Z M 639.832031 502.402344 " fill-opacity="1" fill-rule="nonzero"/></svg>